<?xml version="1.0" encoding="utf-8"?>
<!-- Generator: Adobe Illustrator 24.2.1, SVG Export Plug-In . SVG Version: 6.00 Build 0)  -->
<svg version="1.1" id="レイヤー_1" xmlns="http://www.w3.org/2000/svg" xmlns:xlink="http://www.w3.org/1999/xlink" x="0px"
	 y="0px" viewBox="0 0 512 512" style="enable-background:new 0 0 512 512;" xml:space="preserve">
<style type="text/css">
	.st0{fill:#AC502A;}
	.st1{fill:none;stroke:#000000;stroke-width:10;stroke-linecap:round;stroke-linejoin:round;}
</style>
<g id="XMLID_1_">
	<g>
		<path class="st0" d="M181.2,330.8c42.2,43.4,70,102.3,74.8,168.2c-67.1,0-127.9-27.2-171.9-71.2l0,0L181.2,330.8z"/>
		<path class="st0" d="M19.3,256c62.9,3.7,119.6,31.5,161.9,74.8l-97,97l0,0C40.2,383.9,13,323.1,13,256H19.3z"/>
		<path class="st0" d="M427.9,84.1L427.9,84.1L332,180C288,136.6,259.7,78,256,13C323.1,13,383.9,40.2,427.9,84.1z"/>
		<path class="st0" d="M499,256c0,67.1-27.2,127.9-71.2,171.8l0,0L256,256l76-76C375.2,222.8,433.7,250.9,499,256z"/>
		<path class="st0" d="M256,13c3.7,65,32,123.6,76,167.1l-76,76L84.2,84.2l0,0C128.1,40.2,188.9,13,256,13z"/>
		<path class="st0" d="M256,256l-74.8,74.8c-42.3-43.3-99-71.1-161.9-74.8H13c0-67.1,27.2-127.9,71.2-171.9l0,0L256,256z"/>
		<path class="st0" d="M427.9,84.1c44,44,71.2,104.7,71.2,171.9c-65.4-5.1-123.8-33.2-167.1-76L427.9,84.1L427.9,84.1z"/>
		<path class="st0" d="M427.8,427.8L427.8,427.8c-44,44-104.7,71.2-171.8,71.2c-4.9-65.9-32.6-124.8-74.8-168.2L256,256L427.8,427.8
			z"/>
	</g>
	<g>
		<path class="st1" d="M256,13c67.1,0,127.9,27.2,171.9,71.2S499,188.9,499,256s-27.2,127.9-71.2,171.8S323.1,499,256,499
			s-127.9-27.2-171.9-71.2S13,323.1,13,256S40.2,128.1,84.2,84.1S188.9,13,256,13z"/>
		<path class="st1" d="M499,256c-65.4-5.1-123.8-33.2-167.1-76C288,136.6,259.7,78,256,13"/>
		<path class="st1" d="M256,499c-4.9-65.9-32.6-124.8-74.8-168.2c-42.3-43.3-99-71.1-161.9-74.8"/>
		<polyline class="st1" points="84.2,84.2 256,256 427.8,427.8 		"/>
		<polyline class="st1" points="84.2,427.8 181.2,330.8 256,256 332,180 427.8,84.2 		"/>
	</g>
</g>
</svg>
